<svg width="53" height="60" viewBox="0 0 53 60" fill="none" xmlns="http://www.w3.org/2000/svg">
<path d="M4.97884 30.2184C5.64217 35.3186 8.08466 40.0209 11.8759 43.4963C15.667 46.9718 20.5634 48.9973 25.7019 49.2159C25.7019 43.0346 23.7194 37.7917 19.9826 34.0537C16.2458 30.3157 11.0029 28.3393 4.82164 28.3345H0V30.1836H4.97884C4.97644 30.1944 4.97644 30.2064 4.97884 30.2184Z" fill="#2D59B3"/>
<path d="M25.6976 5.7924V0H23.852V5.76002C18.7451 6.41487 14.0342 8.85388 10.5515 12.6459C7.06885 16.438 5.0387 21.339 4.81982 26.4831C11.0011 26.4831 16.2439 24.5006 19.9819 20.7637C23.6816 17.0653 25.6533 11.8909 25.6976 5.7924Z" fill="#2D59B3"/>
<path d="M48.2735 24.635C48.2651 24.5714 48.2603 24.5078 48.2519 24.4442C47.5558 19.3758 45.1017 14.7131 41.3181 11.2696C37.5346 7.82618 32.6619 5.82105 27.5505 5.604C27.5505 11.7853 29.5329 17.028 33.2698 20.766C37.0066 24.5041 42.2459 26.4793 48.4247 26.4854H52.8264V24.635H48.2735Z" fill="#F60022"/>
<path d="M29.5237 53.3585V49.0385C34.6046 48.3564 39.2834 45.908 42.7401 42.1223C46.1969 38.3366 48.2112 33.4552 48.4299 28.3335C42.2487 28.3335 37.0058 30.3159 33.2678 34.0539C29.5298 37.792 27.5497 43.0336 27.5497 49.2149H27.6697H27.5497V53.5086C27.2425 53.5206 26.9341 53.5289 26.6245 53.5289C22.8979 53.5406 19.2191 52.6887 15.8771 51.0399C12.5349 49.3912 9.62032 46.9904 7.36193 44.026L2.22949 47.968C5.10044 51.7104 8.79386 54.742 13.0241 56.8284C17.2543 58.9149 21.9078 60 26.6245 60C31.3412 60 35.9948 58.9149 40.2249 56.8284C44.4551 54.742 48.1485 51.7104 51.0195 47.968L45.8871 44.026C43.926 46.6007 41.4664 48.7539 38.6551 50.3574C35.8437 51.9608 32.7381 52.9814 29.5237 53.3585Z" fill="#2D59B3"/>
</svg>
